# xmcd
# Track frame offsets:
# 150
# 12519
# 25416
# 36797
# 46892
# 57626
# 74724
# 89845
# 102168
# 111994
#
# Disc length: 1661 seconds
# Revision: 0
# Processed by: cddbd v1.4PL0 Copyright (c) Steve Scherf et al.
# Submitted via: VisiTrax 2.9.5.181 - For more info visit www.synapsa.com
#
DISCID=93067b0a
DTITLE=Charlie Rich - All-Time Greatest Hits
DYEAR=2001
DGENRE=
TTITLE0=Behind Closed Doors
TTITLE1=The Most Beautiful Girl
TTITLE2=Rollin' With The Flow
TTITLE3=Lonely Weekends
TTITLE4=There Won't Be Anymore
TTITLE5=My Elusive Dreams
TTITLE6=On My Knees
TTITLE7=Who Will The Next Fool Be?
TTITLE8=Mohair Sam
TTITLE9=Good Time Charlie's Got the Blues
EXTD=
EXTT0=
EXTT1=
EXTT2=
EXTT3=
EXTT4=
EXTT5=
EXTT6=
EXTT7=
EXTT8=
EXTT9=
PLAYORDER=
